<?xml version="1.0" encoding="utf-8"?>
<svg
	version="1.1"
	xmlns="http://www.w3.org/2000/svg"
	xmlns:xlink="http://www.w3.org/1999/xlink"
	viewBox="1.57 6.62 20.73 17.72"
	enable-background="new 1.57 6.62 20.73 17.72"
	xml:space="preserve">
	<path
		fill="#FFFFFF"
		stroke="#FFFFFF"
		fill-opacity="1.000"
		stroke-opacity="0.000"
		fill-rule="nonzero"
		stroke-width="0.24"
		stroke-linejoin="miter"
		stroke-linecap="square"
		d="M8.75,15.32L20.12,15.32L20.12,11.28L8.75,11.28z"/>
	<path
		fill="#643F00"
		stroke="#000000"
		fill-opacity="1.000"
		stroke-opacity="1.000"
		fill-rule="nonzero"
		stroke-width="0.24000001"
		stroke-linejoin="miter"
		stroke-linecap="square"
		d="M10.97,17.99C14.86,17.99,18.01,19.39,18.01,21.11C18.01,22.83,14.86,24.22,10.97,24.22C7.09,24.22,3.94,22.83,3.94,21.11C3.94,19.39,7.09,17.99,10.97,17.99z"/>
	<path
		fill="#643F00"
		stroke="#000000"
		fill-opacity="1.000"
		stroke-opacity="1.000"
		fill-rule="nonzero"
		stroke-width="0.24"
		stroke-linejoin="miter"
		stroke-linecap="square"
		d="M10.97,17.25C14.86,17.25,18.01,18.65,18.01,20.37C18.01,22.09,14.86,23.48,10.97,23.48C7.09,23.48,3.94,22.09,3.94,20.37C3.94,18.65,7.09,17.25,10.97,17.25z"/>
	<path
		fill="#FFFFFF"
		stroke="#000000"
		fill-opacity="1.000"
		stroke-opacity="1.000"
		fill-rule="nonzero"
		stroke-width="0.24"
		stroke-linejoin="miter"
		stroke-linecap="square"
		d="M10.60,14.23L10.60,13.39M11.21,12.97L11.21,13.81M10.00,13.64L10.00,14.48M11.21,12.97L11.21,13.81"/>
	<path
		fill="#00FFBD"
		stroke="#F9F9F9"
		fill-opacity="1.000"
		stroke-opacity="0.031"
		fill-rule="nonzero"
		stroke-width="0.24"
		stroke-linejoin="miter"
		stroke-linecap="square"
		d="M4.88,9.50L8.13,9.49A0.41 0.41 0 0 1 8.54,9.89L8.57,15.49A0.41 0.41 0 0 1 8.16,15.90L4.90,15.91A0.41 0.41 0 0 1 4.49,15.51L4.47,9.91A0.41 0.41 0 0 1 4.88,9.50z"/>
	<path
		fill="#00FFBD"
		stroke="#000000"
		fill-opacity="1.000"
		stroke-opacity="1.000"
		fill-rule="nonzero"
		stroke-width="0.24"
		stroke-linejoin="miter"
		stroke-linecap="square"
		d="M7.79,8.34C11.29,7.31,14.78,6.27,17.64,8.13C20.49,9.98,22.70,14.71,22.08,15.37C21.45,16.03,17.98,12.62,15.22,11.94C12.46,11.27,10.41,13.32,8.36,15.37L14.36,12.37L20.36,15.37L12.40,18.84L7.32,18.18M11.71,12.69L11.71,13.53M12.19,12.41L12.19,13.31M12.63,12.24L12.63,13.14M13.09,12.04L13.09,12.95Q6.71,25.83,3.64,15.32M11.71,12.69L11.71,13.53M12.19,12.41L12.19,13.31M12.63,12.24L12.63,13.14M13.09,12.04L13.09,12.95M16.80,12.71L16.78,13.44M17.48,12.97L17.47,13.81"/>
	<path
		fill="#00FFBD"
		stroke="#000000"
		fill-opacity="1.000"
		stroke-opacity="1.000"
		fill-rule="nonzero"
		stroke-width="0.24"
		stroke-linejoin="miter"
		stroke-linecap="square"
		d="M3.91,16.41Q-0.52,11.54,3.91,10.02Q9.91,4.02,10.97,8.99"/>

	<path
		fill="#FFFFFF"
		stroke="#000000"
		fill-opacity="1.000"
		stroke-opacity="1.000"
		fill-rule="nonzero"
		stroke-width="0.24"
		stroke-linejoin="miter"
		stroke-linecap="square"
		d="M7.79,9.51C8.56,9.51,9.18,9.52,9.18,9.54C9.18,9.55,8.56,9.57,7.79,9.57C7.02,9.57,6.40,9.55,6.40,9.54C6.40,9.52,7.02,9.51,7.79,9.51z"/>

	<path
		fill="#00FFBD"
		stroke="#000000"
		fill-opacity="1.000"
		stroke-opacity="1.000"
		fill-rule="nonzero"
		stroke-width="0.24"
		stroke-linejoin="miter"
		stroke-linecap="square"
		d="M13.67,11.92L13.66,12.66"/>
	<path
		fill="#00FFBD"
		stroke="#000000"
		fill-opacity="1.000"
		stroke-opacity="1.000"
		fill-rule="nonzero"
		stroke-width="0.24"
		stroke-linejoin="miter"
		stroke-linecap="square"
		d="M14.36,11.83L14.36,12.38M14.91,12.46L14.91,11.92"/>
	<path
		fill="#00FFBD"
		stroke="#000000"
		fill-opacity="1.000"
		stroke-opacity="1.000"
		fill-rule="nonzero"
		stroke-width="0.24"
		stroke-linejoin="miter"
		stroke-linecap="square"
		d="M15.48,12.14L15.47,12.88"/>
	<path
		fill="#00FFBD"
		stroke="#000000"
		fill-opacity="1.000"
		stroke-opacity="1.000"
		fill-rule="nonzero"
		stroke-width="0.24"
		stroke-linejoin="miter"
		stroke-linecap="square"
		d="M16.10,12.30L16.08,13.03"/>
	<path
		fill="#00FFBD"
		stroke="#000000"
		fill-opacity="1.000"
		stroke-opacity="1.000"
		fill-rule="nonzero"
		stroke-width="0.24"
		stroke-linejoin="miter"
		stroke-linecap="square"
		d="M18.15,13.38L18.13,14.10"/>
	<path
		fill="#00FFBD"
		stroke="#000000"
		fill-opacity="1.000"
		stroke-opacity="1.000"
		fill-rule="nonzero"
		stroke-width="0.24"
		stroke-linejoin="miter"
		stroke-linecap="square"
		d="M18.90,13.97L18.89,14.58"/>
	<path
		fill="#00FFBD"
		stroke="#000000"
		fill-opacity="1.000"
		stroke-opacity="1.000"
		fill-rule="nonzero"
		stroke-width="0.24"
		stroke-linejoin="miter"
		stroke-linecap="square"
		d="M19.68,14.38L19.66,14.98"/>
</svg>